G04*
G04 #@! TF.GenerationSoftware,Altium Limited,Altium Designer,25.1.2 (22)*
G04*
G04 Layer_Physical_Order=1*
G04 Layer_Color=255*
%FSLAX44Y44*%
%MOMM*%
G71*
G04*
G04 #@! TF.SameCoordinates,396CCE72-0539-44A8-A966-444F56D6D9DB*
G04*
G04*
G04 #@! TF.FilePolarity,Positive*
G04*
G01*
G75*
%ADD11C,0.2540*%
%ADD12R,1.5000X1.2000*%
%ADD16R,8.3820X1.3970*%
%ADD17R,20.1930X1.7780*%
%ADD18R,15.4940X1.5240*%
%ADD19C,1.5240*%
%ADD20C,1.6500*%
D11*
X535940Y537210D02*
X614680D01*
X530860Y542290D02*
X535940Y537210D01*
X530860Y542290D02*
Y647700D01*
X786130Y524510D02*
X787400D01*
X637540Y673100D02*
X786130Y524510D01*
X530860Y673100D02*
X637540D01*
X787400Y524510D02*
Y570230D01*
X866140Y912760D02*
Y972820D01*
X862330Y976630D02*
X866140Y972820D01*
X741680Y914030D02*
Y976630D01*
Y793750D02*
Y836030D01*
X866140Y834760D02*
X866775Y834125D01*
Y793115D02*
Y834125D01*
Y793115D02*
X867410Y792480D01*
X716280Y641350D02*
X787400Y570230D01*
X716280Y641350D02*
Y741680D01*
X816610Y524510D02*
Y595630D01*
X767080Y645160D02*
X816610Y595630D01*
X767080Y645160D02*
Y793750D01*
X891540Y525780D02*
X892810Y527050D01*
Y792480D01*
X843280Y523240D02*
Y747690D01*
X842010Y769960D02*
X843280Y768690D01*
X842010Y769960D02*
Y792480D01*
X803020Y424934D02*
Y519050D01*
X613410Y529590D02*
Y533400D01*
X750969Y451584D02*
Y483779D01*
Y451584D02*
X777620Y424934D01*
X708968Y525780D02*
X750969Y483779D01*
X617220Y525780D02*
X708968D01*
X613410Y529590D02*
X617220Y525780D01*
D12*
X716280Y741680D02*
D03*
Y762680D02*
D03*
X843280Y747690D02*
D03*
Y768690D02*
D03*
D16*
X576580Y531495D02*
D03*
D17*
X813435Y977900D02*
D03*
D18*
X859790Y520700D02*
D03*
D19*
X530860Y749300D02*
D03*
Y723900D02*
D03*
Y647700D02*
D03*
Y673100D02*
D03*
Y698500D02*
D03*
X716280Y793750D02*
D03*
X767080D02*
D03*
X741680D02*
D03*
X842010Y792480D02*
D03*
X892810D02*
D03*
X867410D02*
D03*
X752220Y424934D02*
D03*
X803020D02*
D03*
X777620D02*
D03*
D20*
X741680Y914030D02*
D03*
Y836030D02*
D03*
X866140Y912760D02*
D03*
Y834760D02*
D03*
M02*
